<svg xmlns="http://www.w3.org/2000/svg" id="Layer_1" data-name="Layer 1" viewBox="0 0 490 490"><defs><style>.cls-1{fill:#fff;}.cls-2{fill:#1a1818;}</style></defs><path id="Path_838" data-name="Path 838" class="cls-1" d="M5,250.29C4.66,115,114.07,5,249.38,4.67S494.66,113.73,495,249,385.94,494.32,250.63,494.67,5.35,385.62,5,250.31v0" transform="translate(-5 -4.67)"></path><path id="Path_839" data-name="Path 839" class="cls-2" d="M40.39,250.12c-.25-115.73,93.36-209.77,209.1-210s209.77,93.36,210,209.09-93.18,209.62-208.81,210S40.9,366.4,40.39,250.76v-.64" transform="translate(-5 -4.67)"></path><path id="Path_840" data-name="Path 840" class="cls-1" d="M264,234.79a65.77,65.77,0,0,1,.68-93c.11-.12.23-.23.35-.35a66.2,66.2,0,1,1-.89,93.51l-.14-.15" transform="translate(-5 -4.67)"></path><path id="Path_841" data-name="Path 841" class="cls-1" d="M190.24,312.1a45.79,45.79,0,0,1,.49-64.75l.18-.18a46.12,46.12,0,1,1-.38,65.23l-.29-.3" transform="translate(-5 -4.67)"></path><path id="Path_842" data-name="Path 842" class="cls-1" d="M134.28,365.21a30.46,30.46,0,1,1,.17.19,1.54,1.54,0,0,0-.17-.19" transform="translate(-5 -4.67)"></path></svg>