<svg id="Layer_1" data-name="Layer 1" xmlns="http://www.w3.org/2000/svg" viewBox="0 0 943.91 191"><defs><style>.cls-1{fill:#fff;stroke:#000;stroke-miterlimit:10;}.cls-2{fill:#231f20;fill-rule:evenodd;}</style></defs><path class="cls-1" d="M375.33,75.31c.58-1.5,1-2.77,1.37-3.83-5.95,1.7-12.38,8.39-17.42,20A72.63,72.63,0,0,0,356.44,99C363.37,97.2,369.83,89.28,375.33,75.31Zm327.19-4-19.35,36.38,54-36.38Zm-64.44,99.85c-20.26,15.31-48.68,24.25-91.6,24.25-47.39,0-69.27-5.71-79.6-11.18-9.37-5-16.25-15.58-10.61-28.31l9.44-20.17a39.4,39.4,0,0,1-5.63-10.91c-25.55,22.41-68.6,37.11-125,34.27-46.46-2.35-111.51-25.4-82.82-86.21.31-.68.64-1.35,1-2-2.72-.27-6.75-.5-12.59-.5C225.4,70.34,210,81.2,196,97.6a200.11,200.11,0,0,0-16.9,23.26c-4.68,7.42-8,13.45-9.72,16.33l-11.46,19.09H28.68s18.41-40.11,31-60.4C71.86,76.08,89.91,51,111,36.62,152,8.66,206,5.44,230.57,5.44a219.76,219.76,0,0,1,40.11,4.24,130.43,130.43,0,0,1,15.51,3.94,37.8,37.8,0,0,1,6.68,2.89,20.34,20.34,0,0,1,4.67,3.62,17.4,17.4,0,0,1,4.11,7.31C327,15.72,359.73,9.69,397.52,11.61c37.23,1.8,72.28,14.57,84.88,38.76,25.16-25,65.2-38.78,100-38.78h387.8L844.53,99.21h68.52l-28.86,57.57H653.39A98.55,98.55,0,0,1,638.08,171.19Z" transform="translate(-27.9 -4.94)"/><path class="cls-2" d="M265.41,58.11s10.81-15.19,20.79-26.33c.37-3.3-31.54-10.35-55.63-10.35S156.77,24.78,120,49.84c-36.16,24.62-66.35,90.44-66.35,90.44h95.21L155.64,129c7.06-11.74,39.73-74.75,85-74.54C265,54.41,265.41,58.11,265.41,58.11Z" transform="translate(-27.9 -4.94)"/><path class="cls-2" d="M466.77,90c15.14-34.88-12.66-59.66-70-62.44C326.75,24,281,49.2,266.7,79.73c-18.61,39.45,18.28,60.85,69.14,63.43C410.56,146.93,454.53,118.38,466.77,90Zm-76.53-8.92c-6.32,16.06-18.24,36.08-39.43,34.1-14.14-1.19-13.1-14.27-6.2-30.13C351,70.41,363.56,53.36,382,55.15,396.91,56.53,395,68.82,390.24,81.11Z" transform="translate(-27.9 -4.94)"/><path class="cls-2" d="M616.28,55,608.49,68c-18.73,31.52-35,40.44-46.27,40.44-6.15,0-9.74-1.59-8.89-9.32C554,93,568.5,55,597.64,55ZM706.2,27.59H582.42c-50.15,0-103.82,30.13-108.53,73-2.77,25.18,7.57,39.25,47,39.25,39.65,0,67.3-27.95,67.3-27.95l-11.58,18.83c-6,9.91-16.85,21.61-51.15,21.61-29.93,0-45.84-8.53-45.84-8.53l-8.81,18.84c-1.32,3-.59,5.35,3.53,7.53,6.74,3.57,25.34,9.32,72.12,9.32,81.48,0,98.49-33.9,115.74-66.41Z" transform="translate(-27.9 -4.94)"/><polygon class="cls-2" points="891.73 22.74 692.24 22.74 677.6 50.41 761.59 50.41 634.84 135.84 846.41 135.84 859.23 110.28 764.32 110.28 891.73 22.74"/><path class="cls-2" d="M915.72,127.92a10.48,10.48,0,1,0,10.48-10.48A10.48,10.48,0,0,0,915.72,127.92Zm23.34,0a12.87,12.87,0,1,1-12.86-12.87A12.86,12.86,0,0,1,939.06,127.92Zm-17.62,6V121.86h5.13a8.67,8.67,0,0,1,2.81.33,2.75,2.75,0,0,1,1.4,1.15,3.42,3.42,0,0,1,.53,1.9,3.2,3.2,0,0,1-.8,2.25,3.81,3.81,0,0,1-2.39,1.11,5.62,5.62,0,0,1,1.31,1,13.64,13.64,0,0,1,1.39,1.95l1.47,2.36h-2.91l-1.77-2.63a15.65,15.65,0,0,0-1.28-1.77,1.88,1.88,0,0,0-.73-.5,4,4,0,0,0-1.23-.14h-.49v5Zm2.44-7h1.8a10.05,10.05,0,0,0,2.19-.14,1.3,1.3,0,0,0,.68-.51,1.57,1.57,0,0,0,.25-.91,1.42,1.42,0,0,0-.33-1,1.49,1.49,0,0,0-.91-.48l-1.78,0h-1.9Z" transform="translate(-27.9 -4.94)"/></svg>